<svg height="auto" viewBox="0 0 2000 1000" xmlns="http://www.w3.org/2000/svg"><path d="M0 1000h94.118M117.647 1000h94.118v-27.048q0-34.783-34.783-34.783H152.43q-34.783 0-34.783 34.783ZM235.294 1000h94.118v-39.771q0-34.783-34.783-34.783h-24.552q-34.783 0-34.783 34.783ZM352.941 1000h94.118V869.085q0-34.783-34.783-34.783h-24.552q-34.783 0-34.783 34.783ZM470.588 1000h94.118V790.006q0-34.783-34.783-34.783h-24.552q-34.783 0-34.783 34.783ZM588.235 1000h94.118V859.551q0-34.782-34.783-34.782h-24.552q-34.783 0-34.783 34.782ZM705.882 1000H800V660.971q0-34.782-34.783-34.782h-24.552q-34.783 0-34.783 34.782ZM823.53 1000h94.117V705.335q0-34.783-34.783-34.783h-24.552q-34.783 0-34.783 34.783ZM941.176 1000h94.118V637.911q0-34.783-34.782-34.783h-24.553q-34.783 0-34.783 34.783ZM1058.824 1000h94.117V633.835q0-34.783-34.782-34.783h-24.553q-34.782 0-34.782 34.783ZM1176.47 1000h94.118V578.244q0-34.782-34.782-34.782h-24.553q-34.782 0-34.782 34.782ZM1294.118 1000h94.117V453.452q0-34.782-34.782-34.782H1328.9q-34.782 0-34.782 34.782ZM1411.765 1000h94.117V637.159q0-34.783-34.782-34.783h-24.553q-34.782 0-34.782 34.783ZM1529.412 1000h94.117V353.444q0-34.783-34.782-34.783h-24.553q-34.782 0-34.782 34.783ZM1647.059 1000h94.117V208.307q0-34.783-34.782-34.783h-24.553q-34.782 0-34.782 34.783ZM1764.706 1000h94.118V296.151q0-34.782-34.783-34.782h-24.553q-34.782 0-34.782 34.782ZM1882.353 1000h94.118V203.512q0-34.782-34.783-34.782h-24.552q-34.783 0-34.783 34.782Z" fill="#00fbec"/></svg>