<svg height="auto" viewBox="0 0 2000 1000" xmlns="http://www.w3.org/2000/svg"><path d="M0 1000h80V27.304q0-4-4-4H4q-4 0-4 4ZM100 1000h80V54.69q0-4-4-4h-72q-4 0-4 4ZM200 1000h80V59.745q0-4-4-4h-72q-4 0-4 4ZM300 1000h80V90.907q0-4-4-4h-72q-4 0-4 4ZM400 1000h80V155.286q0-4-4-4h-72q-4 0-4 4ZM500 1000h80V221.081q0-4-4-4h-72q-4 0-4 4ZM600 1000h80V271.405q0-4-4-4h-72q-4 0-4 4ZM700 1000h80V207.752q0-4-4-4h-72q-4 0-4 4ZM800 1000h80V251.84q0-4-4-4h-72q-4 0-4 4ZM900 1000h80V439.158q0-4-4-4h-72q-4 0-4 4ZM1000 1000h80V514.398q0-4-4-4h-72q-4 0-4 4ZM1100 1000h80V297.205q0-4-4-4h-72q-4 0-4 4ZM1200 1000h80V471.618q0-4-4-4h-72q-4 0-4 4ZM1300 1000h80V376.871q0-4-4-4h-72q-4 0-4 4ZM1400 1000h80V735.684q0-4-4-4h-72q-4 0-4 4ZM1500 1000h80V612.131q0-4-4-4h-72q-4 0-4 4ZM1600 1000h80V742.096q0-4-4-4h-72q-4 0-4 4ZM1700 1000h80V665.155q0-4-4-4h-72q-4 0-4 4ZM1800 1000h80V700.696q0-4-4-4h-72q-4 0-4 4ZM1900 1000h80V549.043q0-4-4-4h-72q-4 0-4 4Z" fill="#fc9bff"/></svg>