<svg height="auto" viewBox="0 0 2000 1000" xmlns="http://www.w3.org/2000/svg"><path d="M0 667.868C18.2 597.23 54.6 289.956 91 314.68c36.4 24.723 54.6 380.195 91 476.804 36.4 96.609 54.6 114.35 91 6.242 36.4-108.108 54.6-542.604 91-546.785 36.4-4.18 54.6 448.305 91 525.882 36.4 77.577 54.6-11.373 91-137.997 36.4-126.623 54.6-524.006 91-495.12 36.4 28.887 54.6 624.309 91 639.554 36.4 15.245 54.6-489.169 91-563.328 36.4-74.159 54.6 189.566 91 192.533 36.4 2.967 54.6-179.333 91-177.7 36.4 1.634 54.6 99.654 91 185.867 36.4 86.214 54.6 193.218 91 245.202 36.4 51.983 54.6 93.416 91 14.715s54.6-305.792 91-408.22c36.4-102.429 54.6-209.432 91-103.924 36.4 105.509 54.6 524.061 91 631.466 36.4 107.406 54.6 23.564 91-94.44 36.4-118.004 54.6-507.52 91-495.58 36.4 11.94 54.6 556.448 91 555.282 36.4-1.165 54.6-521.892 91-561.11 36.4-39.22 72.8 292.013 91 365.016L2000 1000H0Z" fill="#ff9c9c1a"/><path d="M0 667.868C18.2 597.23 54.6 289.956 91 314.68c36.4 24.723 54.6 380.195 91 476.804 36.4 96.609 54.6 114.35 91 6.242 36.4-108.108 54.6-542.604 91-546.785 36.4-4.18 54.6 448.305 91 525.882 36.4 77.577 54.6-11.373 91-137.997 36.4-126.623 54.6-524.006 91-495.12 36.4 28.887 54.6 624.309 91 639.554 36.4 15.245 54.6-489.169 91-563.328 36.4-74.159 54.6 189.566 91 192.533 36.4 2.967 54.6-179.333 91-177.7 36.4 1.634 54.6 99.654 91 185.867 36.4 86.214 54.6 193.218 91 245.202 36.4 51.983 54.6 93.416 91 14.715s54.6-305.792 91-408.22c36.4-102.429 54.6-209.432 91-103.924 36.4 105.509 54.6 524.061 91 631.466 36.4 107.406 54.6 23.564 91-94.44 36.4-118.004 54.6-507.52 91-495.58 36.4 11.94 54.6 556.448 91 555.282 36.4-1.165 54.6-521.892 91-561.11 36.4-39.22 72.8 292.013 91 365.016" fill="none" stroke="#ff9c9c" stroke-width="10"/><g fill="#ff9c9c"><circle cy="667.868" r="14"/><circle cx="91" cy="314.679" r="14"/><circle cx="182" cy="791.483" r="14"/><circle cx="273" cy="797.725" r="14"/><circle cx="364" cy="250.94" r="14"/><circle cx="455" cy="776.822" r="14"/><circle cx="546" cy="638.825" r="14"/><circle cx="637" cy="143.706" r="14"/><circle cx="728" cy="783.259" r="14"/><circle cx="819" cy="219.931" r="14"/><circle cx="910" cy="412.464" r="14"/><circle cx="1001" cy="234.765" r="14"/><circle cx="1092" cy="420.631" r="14"/><circle cx="1183" cy="665.833" r="14"/><circle cx="1274" cy="680.548" r="14"/><circle cx="1365" cy="272.328" r="14"/><circle cx="1456" cy="168.404" r="14"/><circle cx="1547" cy="799.87" r="14"/><circle cx="1638" cy="705.43" r="14"/><circle cx="1729" cy="209.85" r="14"/><circle cx="1820" cy="765.132" r="14"/><circle cx="1911" cy="204.022" r="14"/><circle cx="2002" cy="569.038" r="14"/></g></svg>